<svg xmlns="http://www.w3.org/2000/svg" xmlns:xlink="http://www.w3.org/1999/xlink" id="svg" style="background-color: white" viewBox="1.11 65.44 398.34 269.09"><g id="svgg"><path id="path0" d="M169.325 66.445 C 167.700 67.843,167.684 67.962,167.846 77.486 C 167.988 85.851,170.896 88.916,175.034 85.061 C 176.251 83.927,176.927 70.381,175.900 67.704 C 174.999 65.356,171.394 64.665,169.325 66.445 M197.804 70.704 C 197.204 71.304,196.564 72.485,196.381 73.328 C 196.199 74.172,195.447 77.048,194.710 79.721 C 193.043 85.767,193.044 86.465,194.726 88.147 C 197.916 91.336,201.038 89.655,202.469 83.978 C 202.967 82.003,203.716 79.392,204.133 78.177 C 205.625 73.834,205.630 72.431,204.161 70.962 C 202.458 69.259,199.375 69.134,197.804 70.704 M141.160 71.386 C 137.742 73.346,137.798 73.884,142.853 87.650 C 144.192 91.296,147.679 92.021,150.467 89.233 C 151.837 87.863,151.602 86.106,149.147 79.351 C 146.299 71.515,144.340 69.562,141.160 71.386 M225.877 81.785 C 224.786 82.422,216.752 93.324,216.512 94.494 C 215.782 98.050,220.516 101.431,223.229 99.292 C 224.490 98.298,231.858 88.198,232.270 86.898 C 233.297 83.663,228.809 80.074,225.877 81.785 M113.852 87.091 C 111.762 89.749,113.589 93.274,121.288 101.437 C 126.520 106.985,131.594 100.873,126.962 94.603 C 120.566 85.945,116.560 83.649,113.852 87.091 M164.088 98.961 C 120.457 104.724,95.612 153.730,115.484 194.830 C 133.186 231.442,186.268 242.551,215.827 215.830 C 219.306 212.686,219.038 212.684,222.599 215.884 L 225.519 218.508 224.052 220.166 C 218.274 226.692,218.942 234.719,225.792 241.082 C 234.201 248.892,248.489 261.887,251.391 264.365 C 253.171 265.884,254.642 267.314,254.661 267.541 C 254.681 267.769,228.048 267.956,195.478 267.956 C 126.969 267.956,134.648 267.211,127.321 274.568 L 122.928 278.980 105.249 278.990 C 76.554 279.005,71.137 276.555,65.947 261.214 C 64.317 256.396,63.994 232.664,65.482 227.026 C 69.413 212.124,80.484 200.964,98.716 193.527 L 101.576 192.360 99.979 188.436 C 98.185 184.028,96.685 176.935,96.685 172.859 C 96.685 170.545,96.409 169.848,94.795 168.086 L 92.905 166.022 79.835 165.855 C 62.078 165.629,58.845 167.236,58.841 176.289 C 58.838 184.997,62.003 186.736,77.892 186.753 L 89.779 186.765 82.991 189.464 C 58.077 199.370,49.774 212.630,49.718 242.606 C 49.672 266.590,53.487 277.364,65.343 286.740 L 68.486 289.227 68.510 297.238 C 68.539 307.537,69.584 310.112,74.862 312.894 C 75.773 313.375,76.271 313.780,75.967 313.794 C 75.663 313.809,73.923 314.061,72.099 314.354 C 70.276 314.648,67.790 315.033,66.575 315.211 C 57.106 316.595,34.712 322.058,22.263 326.020 C 15.927 328.036,1.105 333.785,1.105 334.227 C 1.105 334.394,90.732 334.530,200.276 334.530 C 309.821 334.530,399.448 334.486,399.448 334.431 C 399.448 334.377,395.656 332.849,391.022 331.036 C 372.205 323.673,354.168 318.642,336.188 315.740 C 323.407 313.678,324.408 314.093,327.158 311.995 C 331.244 308.879,332.275 306.018,332.597 296.907 L 332.873 289.085 335.779 286.791 C 346.823 278.071,350.829 265.829,350.829 240.796 C 350.829 213.662,343.556 201.540,320.442 190.148 L 314.088 187.017 324.309 186.740 C 338.062 186.369,342.490 183.463,341.093 175.728 C 339.565 167.277,336.398 165.746,320.442 165.746 C 302.926 165.746,302.210 166.221,302.210 177.856 C 302.210 182.946,302.049 184.431,301.519 184.220 C 300.824 183.943,294.098 172.565,287.659 160.773 C 274.867 137.351,273.524 135.441,267.737 132.440 L 264.365 130.691 253.926 130.486 C 245.330 130.317,243.545 130.412,243.811 131.024 C 250.881 147.291,253.023 164.419,250.007 180.554 C 248.818 186.912,248.150 186.313,257.188 186.992 C 299.368 190.161,322.937 200.241,331.746 218.878 C 337.226 230.472,337.435 258.120,332.108 266.878 L 331.115 268.511 330.487 266.415 C 329.524 263.200,327.552 260.997,317.689 252.120 L 308.583 243.923 314.098 243.579 C 320.516 243.178,322.904 242.399,328.184 238.983 C 332.934 235.911,332.963 235.647,330.023 222.498 L 329.186 218.752 327.438 219.034 C 326.477 219.189,324.696 219.454,323.481 219.622 C 317.565 220.442,310.133 221.601,309.392 221.820 C 308.936 221.954,304.710 222.573,300.000 223.196 C 295.290 223.818,290.488 224.550,289.329 224.821 L 287.221 225.314 280.603 219.305 C 272.024 211.515,263.145 203.838,261.050 202.397 C 255.592 198.647,246.139 199.221,241.005 203.616 L 238.670 205.615 234.943 202.409 C 232.893 200.646,231.119 199.142,231.001 199.065 C 230.883 198.989,231.663 197.241,232.735 195.181 C 257.593 147.416,217.947 91.846,164.088 98.961 M246.685 100.867 C 244.591 101.953,237.057 107.563,235.773 108.991 C 232.646 112.472,236.944 118.203,240.978 115.930 C 251.328 110.099,255.200 104.679,251.339 101.430 C 249.360 99.765,248.913 99.711,246.685 100.867 M95.856 107.825 C 92.542 109.624,92.327 113.689,95.442 115.659 C 107.078 123.016,107.362 123.110,109.987 120.484 C 113.372 117.100,112.179 115.086,104.144 110.624 C 98.249 107.350,97.313 107.034,95.856 107.825 M185.083 115.818 C 214.617 121.850,232.245 155.510,220.504 183.455 C 199.305 233.912,124.751 219.276,124.671 164.641 C 124.623 131.756,152.563 109.176,185.083 115.818 M165.197 127.967 C 136.226 134.297,126.460 169.908,147.790 191.439 C 164.633 208.440,196.493 203.997,207.307 183.140 C 222.763 153.329,197.944 120.812,165.197 127.967 M173.757 134.807 C 173.569 135.110,172.847 135.359,172.153 135.359 C 171.459 135.359,169.446 135.856,167.680 136.464 C 163.808 137.796,164.248 137.794,163.546 136.482 C 163.038 135.534,163.194 135.329,164.769 134.875 C 167.266 134.154,174.192 134.102,173.757 134.807 M160.286 137.504 C 162.950 140.169,163.186 142.664,161.016 145.243 C 156.597 150.495,148.494 144.791,151.664 138.661 C 153.581 134.953,157.244 134.462,160.286 137.504 M151.795 149.405 C 156.142 154.148,150.988 161.779,145.393 158.886 C 140.993 156.610,140.091 152.064,143.386 148.769 C 145.989 146.166,149.038 146.397,151.795 149.405 M146.374 163.351 C 146.066 164.161,145.796 166.461,145.774 168.462 C 145.724 173.056,144.839 171.274,144.356 165.608 L 144.039 161.878 145.486 161.878 C 146.826 161.878,146.892 161.988,146.374 163.351 M250.327 213.597 C 249.703 214.390,245.982 218.346,242.059 222.387 L 234.926 229.734 233.195 227.948 L 231.464 226.162 238.158 219.158 L 244.853 212.155 248.157 212.155 L 251.461 212.155 250.327 213.597 M272.928 232.994 C 303.658 260.040,315.905 271.289,316.897 273.381 C 319.423 278.703,316.614 286.396,311.428 288.361 C 305.631 290.557,301.911 289.142,293.842 281.670 C 286.908 275.251,281.518 270.361,263.799 254.420 C 251.927 243.739,240.884 233.658,240.884 233.501 C 240.884 233.443,244.289 229.853,248.450 225.524 L 256.016 217.653 258.809 220.339 C 260.345 221.817,266.699 227.511,272.928 232.994 M71.067 219.220 C 70.512 220.118,69.106 229.149,68.948 232.830 L 68.785 236.655 72.188 238.987 C 78.872 243.569,80.054 243.811,97.047 244.078 L 112.050 244.314 120.650 236.138 C 125.381 231.641,129.196 227.911,129.128 227.849 C 128.879 227.620,108.855 224.328,101.105 223.242 C 96.699 222.625,88.619 221.373,83.149 220.459 C 72.363 218.657,71.471 218.566,71.067 219.220 M278.904 289.774 L 282.181 292.808 282.421 299.075 C 282.635 304.680,282.822 305.616,284.183 307.939 L 285.704 310.536 284.427 310.258 C 269.638 307.049,175.333 305.557,142.541 308.014 C 140.870 308.139,136.768 308.396,133.425 308.584 C 130.083 308.773,126.602 309.009,125.691 309.108 C 124.779 309.208,122.097 309.467,119.731 309.684 L 115.428 310.078 116.685 307.949 C 117.834 306.001,117.959 305.001,118.149 296.280 L 118.357 286.740 196.993 286.740 L 275.628 286.740 278.904 289.774 " stroke="none" fill="#1976D2 " fill-rule="evenodd"/></g></svg>